<?xml version="1.0" standalone="no"?>
<!DOCTYPE svg PUBLIC "-//W3C//DTD SVG 20010904//EN"
 "http://www.w3.org/TR/2001/REC-SVG-20010904/DTD/svg10.dtd">
<svg version="1.0" xmlns="http://www.w3.org/2000/svg"
 width="225.000000pt" height="225.000000pt" viewBox="0 0 225.000000 225.000000"
 preserveAspectRatio="xMidYMid meet">

<g transform="translate(0.000000,225.000000) scale(0.100000,-0.100000)"
fill="#000000" stroke="none">
<path d="M1041 2019 c-53 -10 -89 -33 -100 -62 -4 -12 -11 -52 -15 -88 l-6
-65 42 -24 c24 -12 50 -29 58 -36 25 -20 222 -125 227 -120 3 2 7 22 10 44 5
37 3 41 -41 72 -44 32 -46 36 -46 82 0 48 0 48 33 48 17 0 56 3 85 7 l53 6
-42 43 c-24 24 -51 44 -61 44 -10 0 -18 4 -18 10 0 29 -109 54 -179 39z m-14
-41 c-3 -8 -6 -5 -6 6 -1 11 2 17 5 13 3 -3 4 -12 1 -19z m107 -119 c-3 -5
-10 -7 -15 -3 -5 3 -7 10 -3 15 3 5 10 7 15 3 5 -3 7 -10 3 -15z"/>
<path d="M1200 1815 c0 -25 6 -37 21 -45 26 -15 29 -11 36 39 6 40 5 41 -26
41 -29 0 -31 -2 -31 -35z"/>
<path d="M985 1717 c17 -21 40 -40 53 -42 75 -16 77 -15 27 13 -27 15 -63 37
-80 47 l-30 20 30 -38z"/>
<path d="M830 1683 c-65 -21 -158 -125 -219 -244 -76 -151 -77 -246 -2 -294
47 -29 122 -54 259 -86 56 -13 102 -28 102 -34 0 -6 -9 -38 -19 -71 -10 -32
-33 -103 -50 -156 -35 -109 -37 -128 -16 -128 11 0 14 -7 9 -24 -4 -18 0 -27
16 -36 33 -18 79 -15 101 6 26 27 101 256 86 266 -8 5 -6 13 7 27 18 20 66
158 66 191 0 10 -10 30 -22 45 -24 26 -37 31 -243 82 -121 30 -124 31 -110 41
14 10 105 150 105 161 0 5 -21 27 -47 49 -40 33 -47 45 -47 75 0 45 24 73 71
82 27 5 38 3 45 -9 5 -8 22 -24 38 -36 l30 -21 0 31 c0 48 -49 90 -104 89 -22
0 -48 -3 -56 -6z m-20 -184 c0 -5 -4 -9 -10 -9 -5 0 -10 7 -10 16 0 8 5 12 10
9 6 -3 10 -10 10 -16z m-110 -114 c0 -8 -4 -15 -10 -15 -5 0 -10 7 -10 15 0 8
5 15 10 15 6 0 10 -7 10 -15z m-105 -115 c3 -5 1 -10 -4 -10 -6 0 -11 5 -11
10 0 6 2 10 4 10 3 0 8 -4 11 -10z m105 -125 c0 -8 -4 -15 -10 -15 -5 0 -10 7
-10 15 0 8 5 15 10 15 6 0 10 -7 10 -15z m210 -5 c0 -5 -7 -10 -15 -10 -8 0
-15 5 -15 10 0 6 7 10 15 10 8 0 15 -4 15 -10z m204 -5 c-4 -8 -10 -12 -15 -9
-11 6 -2 24 11 24 5 0 7 -7 4 -15z m-104 -121 c0 -14 -3 -14 -15 -4 -8 7 -15
14 -15 16 0 2 7 4 15 4 8 0 15 -7 15 -16z m-2 -236 c-2 -6 -10 -14 -16 -16 -7
-2 -10 2 -6 12 7 18 28 22 22 4z"/>
<path d="M842 1598 c-7 -7 -12 -24 -12 -39 0 -21 20 -46 94 -114 154 -142 137
-135 296 -121 127 12 137 11 172 -6 41 -22 72 -14 83 22 10 33 -3 55 -46 79
-42 24 -82 25 -283 6 -29 -3 -44 3 -77 31 -22 19 -47 34 -55 34 -8 0 -14 6
-14 14 0 7 -22 34 -50 60 -50 46 -84 58 -108 34z m278 -224 c0 -8 -4 -12 -10
-9 -5 3 -10 10 -10 16 0 5 5 9 10 9 6 0 10 -7 10 -16z m210 1 c0 -8 -4 -15 -9
-15 -13 0 -22 16 -14 24 11 11 23 6 23 -9z"/>
<path d="M1513 1413 c-15 -5 -17 -36 -4 -61 5 -9 16 -34 25 -54 l16 -38 -53 0
c-29 0 -58 -5 -65 -12 -8 -8 -15 -8 -24 -1 -16 13 -167 12 -187 -1 -10 -6 -16
-5 -19 2 -6 19 -57 14 -86 -9 -34 -26 -33 -36 4 -44 42 -9 73 -63 67 -118 -2
-23 -27 -116 -56 -206 -28 -91 -51 -169 -51 -175 0 -6 -7 -29 -16 -53 -13 -33
-25 -46 -59 -62 -37 -17 -49 -19 -77 -9 -18 6 -43 20 -55 30 -29 27 -39 88
-20 125 25 50 50 157 38 161 -16 5 -14 22 3 22 12 0 46 71 46 97 0 6 -26 17
-57 24 -32 6 -105 25 -163 40 -98 27 -117 29 -295 29 -198 0 -227 -5 -249 -45
-6 -11 -16 -24 -22 -30 -6 -5 -21 -26 -33 -46 l-21 -37 68 -21 c38 -11 76 -29
86 -40 16 -17 31 -19 136 -19 92 0 125 -4 151 -17 39 -20 165 -148 174 -176 4
-13 20 -21 46 -25 51 -8 87 -37 97 -77 7 -27 13 -33 42 -35 19 -2 51 1 70 7
19 5 48 13 63 16 37 7 103 69 152 142 22 32 42 60 45 63 31 27 77 104 73 120
-4 14 0 20 10 20 8 0 29 19 47 43 l31 42 -41 3 c-54 4 -57 32 -2 32 47 0 82
10 82 22 0 5 -40 8 -92 7 -51 -1 -94 1 -95 5 -8 19 6 22 100 21 120 0 181 16
172 46 -7 21 11 27 18 7 3 -10 12 -8 36 5 18 11 34 17 35 15 2 -1 16 -30 33
-63 66 -132 75 -165 48 -165 -26 0 -136 -119 -160 -174 -22 -48 -50 -175 -40
-184 2 -3 12 -2 21 2 13 5 16 15 11 50 -4 25 -3 46 1 48 4 2 22 35 41 73 25
51 49 83 88 115 55 46 92 61 94 38 4 -39 -10 -73 -29 -73 -15 -1 -62 -53 -62
-69 0 -9 -7 -16 -16 -16 -10 0 -14 -5 -10 -15 3 -9 -3 -23 -13 -32 -11 -9 -17
-22 -14 -29 3 -7 1 -19 -3 -25 -11 -18 -12 -122 -1 -136 5 -7 7 -22 4 -32 -3
-12 1 -22 9 -25 8 -3 14 -13 14 -22 0 -9 8 -23 18 -30 9 -7 17 -18 17 -26 0
-7 7 -13 15 -13 8 0 16 -10 18 -23 2 -14 10 -22 23 -22 11 0 22 -7 25 -15 4
-8 17 -15 30 -15 13 0 24 -4 24 -10 0 -19 18 -10 25 13 7 21 7 21 12 2 8 -32
22 -43 44 -38 12 4 25 0 30 -8 7 -11 11 -10 23 6 12 16 16 17 30 6 14 -12 19
-11 30 5 11 15 17 16 29 6 12 -10 16 -9 20 9 4 16 11 20 26 16 13 -3 21 1 24
15 4 15 11 18 28 13 17 -6 21 -4 16 8 -7 19 11 37 30 30 12 -5 14 -1 8 16 -5
18 -2 24 14 28 16 4 20 11 15 25 -4 14 0 21 15 25 21 5 30 23 11 23 -5 0 -10
7 -10 15 0 8 7 15 15 15 8 0 15 7 15 15 0 8 -4 15 -10 15 -5 0 -10 7 -10 15 0
8 7 15 15 15 20 0 19 10 -2 27 -13 10 -15 16 -5 19 17 8 15 34 -3 34 -8 0 -15
7 -15 15 0 8 5 15 10 15 19 0 10 18 -11 23 -15 4 -19 11 -15 25 5 14 1 21 -15
25 -16 4 -19 10 -14 28 6 17 4 21 -8 16 -18 -7 -37 11 -30 29 4 10 -2 13 -18
12 -18 -2 -24 2 -22 15 1 15 -4 17 -24 12 -19 -4 -26 -1 -30 15 -4 15 -9 18
-18 10 -9 -8 -18 -6 -30 6 -16 17 -18 17 -27 0 -8 -15 -12 -16 -26 -4 -18 15
-70 17 -90 4 -18 -11 -45 1 -60 24 -18 29 -10 36 45 44 43 6 66 6 153 2 14 -1
47 -12 74 -24 45 -20 66 -21 66 -3 0 9 -36 26 -99 48 -50 17 -147 19 -211 4
-25 -5 -48 -7 -51 -3 -12 14 -123 240 -193 395 -26 57 -30 60 -53 50z m31 -44
c-3 -5 -10 -7 -15 -3 -5 3 -7 10 -3 15 3 5 10 7 15 3 5 -3 7 -10 3 -15z m-217
-245 c-9 -9 -28 6 -21 18 4 6 10 6 17 -1 6 -6 8 -13 4 -17z m-951 -101 c-10
-10 -19 5 -10 18 6 11 8 11 12 0 2 -7 1 -15 -2 -18z m424 2 c0 -8 -4 -15 -10
-15 -5 0 -10 7 -10 15 0 8 5 15 10 15 6 0 10 -7 10 -15z m-210 -5 c0 -5 -4
-10 -10 -10 -5 0 -10 5 -10 10 0 6 5 10 10 10 6 0 10 -4 10 -10z m630 -11 c0
-5 -4 -9 -10 -9 -5 0 -10 7 -10 16 0 8 5 12 10 9 6 -3 10 -10 10 -16z m-945
-88 c3 -5 1 -12 -5 -16 -5 -3 -10 1 -10 9 0 18 6 21 15 7z m215 -10 c0 -6 -4
-13 -10 -16 -5 -3 -10 1 -10 9 0 9 5 16 10 16 6 0 10 -4 10 -9z m196 -18 c-10
-10 -19 5 -10 18 6 11 8 11 12 0 2 -7 1 -15 -2 -18z m1306 -109 c45 -13 65
-25 87 -53 63 -81 81 -154 56 -237 -30 -101 -106 -162 -213 -171 -61 -5 -72
-2 -126 26 -32 17 -63 31 -70 31 -12 0 -44 88 -56 153 -12 64 16 145 67 191
36 32 45 36 58 26 8 -7 15 -19 15 -27 0 -8 18 -52 40 -98 22 -46 40 -89 40
-94 0 -14 5 -14 33 2 12 6 23 13 25 13 2 1 -20 47 -48 102 -37 73 -55 99 -66
95 -18 -7 -18 7 2 35 19 27 72 29 156 6z m-1192 -4 c0 -5 -7 -10 -15 -10 -8 0
-15 5 -15 10 0 6 7 10 15 10 8 0 15 -4 15 -10z m406 -17 c-10 -10 -19 5 -10
18 6 11 8 11 12 0 2 -7 1 -15 -2 -18z m-96 -101 c0 -13 -12 -22 -22 -16 -10 6
-1 24 13 24 5 0 9 -4 9 -8z m520 -142 c0 -5 -4 -10 -10 -10 -5 0 -10 5 -10 10
0 6 5 10 10 10 6 0 10 -4 10 -10z"/>
<path d="M211 850 c-7 -4 -21 -5 -31 -3 -11 3 -19 -2 -23 -16 -3 -14 -10 -19
-21 -15 -11 4 -16 1 -16 -11 0 -9 -9 -19 -20 -22 -11 -3 -20 -14 -20 -24 0
-11 -7 -22 -15 -25 -8 -4 -15 -15 -15 -25 0 -11 -7 -22 -15 -25 -10 -4 -13
-14 -9 -30 4 -15 2 -24 -6 -24 -8 0 -10 -9 -6 -27 5 -17 3 -29 -6 -35 -11 -7
-11 -9 0 -16 9 -6 11 -18 6 -35 -4 -18 -2 -27 6 -27 8 0 10 -9 6 -25 -5 -18
-2 -25 9 -25 9 0 15 -9 15 -24 0 -13 7 -26 15 -30 8 -3 15 -14 15 -25 0 -10 9
-21 20 -24 11 -3 20 -13 20 -22 0 -11 5 -15 14 -12 17 7 39 -16 28 -28 -4 -4
2 -5 14 -1 13 4 26 1 34 -9 7 -8 23 -15 35 -15 13 0 25 -6 28 -12 3 -10 8 -10
21 2 16 13 20 12 32 -4 12 -17 14 -17 30 -1 14 13 19 14 26 3 7 -10 10 -9 19
5 12 20 39 23 39 5 0 -7 8 -3 18 10 11 14 24 21 34 17 10 -4 17 1 21 16 4 14
11 20 21 16 11 -5 16 0 16 13 0 11 5 21 10 21 6 1 16 2 23 3 6 1 11 10 9 19
-2 12 4 21 18 24 15 4 19 11 15 24 -4 12 -1 21 8 24 8 4 12 16 9 34 -3 24 -9
28 -38 29 -35 1 -35 1 -88 -98 -6 -10 -39 -33 -75 -51 -36 -18 -69 -38 -73
-44 -5 -6 -11 -6 -20 3 -6 6 -23 12 -38 12 -47 0 -126 46 -163 94 -63 83 -69
187 -16 272 21 34 98 91 136 100 13 4 23 10 23 14 0 16 -67 58 -79 50z"/>
<path d="M342 792 c12 -16 39 -56 58 -91 60 -106 74 -125 113 -146 33 -17 39
-18 47 -5 9 13 12 13 21 -2 15 -27 46 -22 57 10 5 15 18 38 30 52 l20 24 -26
36 c-41 55 -104 120 -134 136 -18 9 -59 14 -118 14 l-92 0 24 -28z m38 -3 c0
-5 -4 -9 -10 -9 -5 0 -10 7 -10 16 0 8 5 12 10 9 6 -3 10 -10 10 -16z m100
-119 c0 -5 -4 -10 -10 -10 -5 0 -10 5 -10 10 0 6 5 10 10 10 6 0 10 -4 10 -10z"/>
<path d="M269 760 c-44 -13 -77 -40 -109 -88 -29 -44 -31 -52 -28 -119 3 -60
8 -78 33 -114 57 -80 159 -108 250 -68 48 21 61 34 45 44 -15 9 -12 25 5 25 8
0 15 -6 15 -12 1 -7 10 -2 20 11 31 36 25 64 -17 92 -22 14 -52 48 -69 79 -61
106 -98 160 -109 159 -5 0 -22 -4 -36 -9z m1 -90 c0 -5 -4 -10 -10 -10 -5 0
-10 5 -10 10 0 6 5 10 10 10 6 0 10 -4 10 -10z m105 -40 c3 -6 -8 -23 -26 -40
-43 -38 -30 -51 16 -16 19 15 40 24 45 21 6 -4 9 -28 8 -55 -2 -26 -6 -46 -9
-44 -4 2 -21 -2 -39 -10 -41 -17 -76 -10 -100 22 -25 30 -25 65 -3 103 15 25
24 29 60 29 23 0 45 -5 48 -10z"/>
<path d="M710 602 c-66 -33 -66 -110 1 -146 31 -17 40 -18 66 -7 18 7 37 27
47 47 15 32 15 38 1 68 -14 29 -50 56 -73 56 -4 0 -23 -8 -42 -18z m76 -69
c-10 -10 -19 5 -10 18 6 11 8 11 12 0 2 -7 1 -15 -2 -18z"/>
</g>
</svg>
